<mxfile host="app.diagrams.net" agent="Mozilla/5.0 (Macintosh; Intel Mac OS X 10_15_7) AppleWebKit/605.1.15 (KHTML, like Gecko) Version/18.6 Safari/605.1.15" version="28.2.5">
  <diagram name="Página-1" id="3w69m5kYqsiMQuj2d_q9">
    <mxGraphModel grid="1" page="1" gridSize="10" guides="1" tooltips="1" connect="1" arrows="1" fold="1" pageScale="1" pageWidth="827" pageHeight="1169" math="0" shadow="0">
      <root>
        <mxCell id="0" />
        <mxCell id="1" parent="0" />
        <mxCell id="CBnJamDfN9FDqCOKh-2T-1" value="Usuario" style="shape=umlActor;verticalLabelPosition=bottom;verticalAlign=top;html=1;labelPosition=center;align=center;" vertex="1" parent="1">
          <mxGeometry x="-520" y="30" width="30" height="60" as="geometry" />
        </mxCell>
        <mxCell id="CBnJamDfN9FDqCOKh-2T-2" value="" style="endArrow=none;dashed=1;html=1;rounded=0;" edge="1" parent="1">
          <mxGeometry width="50" height="50" relative="1" as="geometry">
            <mxPoint x="-505.5" y="550" as="sourcePoint" />
            <mxPoint x="-505.5" y="100" as="targetPoint" />
          </mxGeometry>
        </mxCell>
        <mxCell id="CBnJamDfN9FDqCOKh-2T-3" value="" style="endArrow=classic;html=1;rounded=0;" edge="1" parent="1">
          <mxGeometry width="50" height="50" relative="1" as="geometry">
            <mxPoint x="-500" y="160" as="sourcePoint" />
            <mxPoint x="-260" y="160" as="targetPoint" />
          </mxGeometry>
        </mxCell>
        <mxCell id="CBnJamDfN9FDqCOKh-2T-4" value="Accede a gofish.com desde movil" style="text;html=1;align=center;verticalAlign=middle;whiteSpace=wrap;rounded=0;" vertex="1" parent="1">
          <mxGeometry x="-500" y="120" width="140" height="30" as="geometry" />
        </mxCell>
        <mxCell id="CBnJamDfN9FDqCOKh-2T-5" value="Interfaz adaptada a móvil&lt;div&gt;-Menú hamburguesa&lt;/div&gt;&lt;div&gt;-Botones táctiles&lt;/div&gt;&lt;div&gt;-Grid responsive&lt;/div&gt;" style="html=1;verticalAlign=bottom;endArrow=block;curved=0;rounded=0;" edge="1" parent="1">
          <mxGeometry x="0.0435" y="-10" width="80" relative="1" as="geometry">
            <mxPoint x="-260" y="470" as="sourcePoint" />
            <mxPoint x="-490" y="470" as="targetPoint" />
            <mxPoint as="offset" />
          </mxGeometry>
        </mxCell>
        <mxCell id="CBnJamDfN9FDqCOKh-2T-6" value="" style="endArrow=none;dashed=1;html=1;rounded=0;entryX=0.5;entryY=1;entryDx=0;entryDy=0;" edge="1" parent="1">
          <mxGeometry width="50" height="50" relative="1" as="geometry">
            <mxPoint x="-260" y="560" as="sourcePoint" />
            <mxPoint x="-260" y="120" as="targetPoint" />
          </mxGeometry>
        </mxCell>
        <mxCell id="CBnJamDfN9FDqCOKh-2T-7" value="V_page.tsx" style="html=1;whiteSpace=wrap;fillColor=#ffe6cc;strokeColor=#d79b00;" vertex="1" parent="1">
          <mxGeometry x="-350" y="70" width="170" height="40" as="geometry" />
        </mxCell>
        <mxCell id="CBnJamDfN9FDqCOKh-2T-8" value="" style="endArrow=classic;html=1;rounded=0;" edge="1" parent="1">
          <mxGeometry width="50" height="50" relative="1" as="geometry">
            <mxPoint x="-260" y="190" as="sourcePoint" />
            <mxPoint x="-10" y="190" as="targetPoint" />
          </mxGeometry>
        </mxCell>
        <mxCell id="CBnJamDfN9FDqCOKh-2T-9" value="Detecta viewport móvil (width&amp;nbsp;&lt;span style=&quot;font-size: 16px; text-align: start; caret-color: rgb(238, 240, 255); color: rgb(238, 240, 255); font-family: &amp;quot;Google Sans&amp;quot;, &amp;quot;Helvetica Neue&amp;quot;, sans-serif; background-color: rgb(31, 31, 31);&quot;&gt;&amp;lt;&lt;/span&gt;&amp;nbsp;768 px)" style="text;html=1;align=center;verticalAlign=middle;whiteSpace=wrap;rounded=0;" vertex="1" parent="1">
          <mxGeometry x="-240" y="150" width="110" height="30" as="geometry" />
        </mxCell>
        <mxCell id="CBnJamDfN9FDqCOKh-2T-10" value="V_layout.tsx" style="html=1;whiteSpace=wrap;fillColor=#ffe6cc;strokeColor=#d79b00;" vertex="1" parent="1">
          <mxGeometry x="-90" y="70" width="180" height="40" as="geometry" />
        </mxCell>
        <mxCell id="CBnJamDfN9FDqCOKh-2T-11" value="" style="endArrow=none;dashed=1;html=1;rounded=0;entryX=0.5;entryY=1;entryDx=0;entryDy=0;" edge="1" parent="1">
          <mxGeometry width="50" height="50" relative="1" as="geometry">
            <mxPoint x="-5.5" y="560" as="sourcePoint" />
            <mxPoint x="-5.5" y="120" as="targetPoint" />
          </mxGeometry>
        </mxCell>
        <mxCell id="CBnJamDfN9FDqCOKh-2T-12" value="Rendering header responsive" style="html=1;verticalAlign=bottom;endArrow=block;curved=0;rounded=0;" edge="1" parent="1">
          <mxGeometry x="-0.04" y="10" width="80" relative="1" as="geometry">
            <mxPoint y="240" as="sourcePoint" />
            <mxPoint x="250" y="240" as="targetPoint" />
            <mxPoint as="offset" />
          </mxGeometry>
        </mxCell>
        <mxCell id="CBnJamDfN9FDqCOKh-2T-13" value="" style="endArrow=none;dashed=1;html=1;rounded=0;entryX=0.5;entryY=1;entryDx=0;entryDy=0;" edge="1" parent="1">
          <mxGeometry width="50" height="50" relative="1" as="geometry">
            <mxPoint x="250" y="560" as="sourcePoint" />
            <mxPoint x="250" y="120" as="targetPoint" />
          </mxGeometry>
        </mxCell>
        <mxCell id="CBnJamDfN9FDqCOKh-2T-14" value="C_globals.css" style="html=1;whiteSpace=wrap;fillColor=#e1d5e7;strokeColor=#9673a6;" vertex="1" parent="1">
          <mxGeometry x="530" y="70" width="110" height="50" as="geometry" />
        </mxCell>
        <mxCell id="CBnJamDfN9FDqCOKh-2T-16" value="" style="endArrow=none;dashed=1;html=1;rounded=0;entryX=0.5;entryY=1;entryDx=0;entryDy=0;" edge="1" parent="1">
          <mxGeometry width="50" height="50" relative="1" as="geometry">
            <mxPoint x="590" y="560" as="sourcePoint" />
            <mxPoint x="590" y="120" as="targetPoint" />
            <Array as="points">
              <mxPoint x="590.5" y="330" />
            </Array>
          </mxGeometry>
        </mxCell>
        <mxCell id="CBnJamDfN9FDqCOKh-2T-17" value="Estilos para pantallas pequeñas" style="html=1;verticalAlign=bottom;endArrow=open;dashed=1;endSize=8;curved=0;rounded=0;" edge="1" parent="1">
          <mxGeometry relative="1" as="geometry">
            <mxPoint x="590" y="350" as="sourcePoint" />
            <mxPoint x="250" y="350" as="targetPoint" />
          </mxGeometry>
        </mxCell>
        <mxCell id="CBnJamDfN9FDqCOKh-2T-19" value="HTML con viewport meta tag" style="html=1;verticalAlign=bottom;endArrow=open;dashed=1;endSize=8;curved=0;rounded=0;" edge="1" parent="1">
          <mxGeometry relative="1" as="geometry">
            <mxPoint x="-10" y="450" as="sourcePoint" />
            <mxPoint x="-260" y="450" as="targetPoint" />
            <mxPoint as="offset" />
          </mxGeometry>
        </mxCell>
        <mxCell id="CBnJamDfN9FDqCOKh-2T-21" value="V_header.tsx" style="html=1;whiteSpace=wrap;fillColor=#ffe6cc;strokeColor=#d79b00;" vertex="1" parent="1">
          <mxGeometry x="160" y="70" width="180" height="40" as="geometry" />
        </mxCell>
      </root>
    </mxGraphModel>
  </diagram>
</mxfile>
